# xmcd CD database file
#
# Track frame offsets:
#	150
#	18462
#	34202
#	49909
#	70666
#	86210
#	104181
#	119541
#	135567
#	152947
#	174304
#	238813
#	254980
#	269256
#	286877
#	316197
#	335772
#
# Disc length: 4752 seconds
#
# Revision: 0
# Processed by: cddbd v1.5.2PL0 Copyright (c) Steve Scherf et al.
# Submitted via: CDex 1.51
#
DISCID=09128e11
DTITLE=Diana Krall - From this moment on Disk2
DYEAR=2006
DGENRE=Jazz
TTITLE0=Deja vu
TTITLE1=Get me bodied
TTITLE2=Suga mama
TTITLE3=Upgrade u
TTITLE4=Ring the alarm
TTITLE5=kitty kat
TTITLE6=Freakum dress
TTITLE7=Green light
TTITLE8=Irreplacelable
TTITLE9=Resentment
TTITLE10=Check on it (Feat.Bun and Slim Thug)
TTITLE11=Check on it
TTITLE12=Keep giving your love to me
TTITLE13=Wishing on a star
TTITLE14=Krazy in Lav
TTITLE15=My first time
TTITLE16=Crazy feelings(with Missy Elliot)
EXTD=YEAR: 2006
EXTT0=
EXTT1=
EXTT2=
EXTT3=
EXTT4=
EXTT5=
EXTT6=
EXTT7=
EXTT8=
EXTT9=
EXTT10=
EXTT11=
EXTT12=
EXTT13=
EXTT14=
EXTT15=
EXTT16=
PLAYORDER=
